<svg width="27" height="20" viewBox="0 0 27 20"  xmlns="http://www.w3.org/2000/svg">
<path d="M26.4766 2.02345C26.4749 2.02345 26.4731 2.02345 26.4714 2.02345H24.6972V1.428C24.7068 1.19232 24.5513 0.980513 24.3204 0.91468C23.0887 0.598091 21.8203 0.439347 20.547 0.442427C18.4536 0.442427 15.6013 0.904414 13.4921 3.00902C11.3987 0.883881 8.52549 0.442427 6.43729 0.442427C5.16397 0.439347 3.89561 0.598091 2.66389 0.91468C2.43296 0.980513 2.27752 1.19232 2.28707 1.428V2.01831H0.523357C0.234333 2.01831 0 2.24815 0 2.53163V18.927C0 19.2105 0.234333 19.4403 0.523357 19.4403C0.613244 19.4401 0.70156 19.4171 0.779802 19.3736C0.832138 19.3479 6.06571 16.5401 13.3718 18.347H13.4503H13.4974C13.5391 18.3519 13.5813 18.3519 13.623 18.347C20.95 16.5247 26.1836 19.3274 26.215 19.3736C26.3769 19.4653 26.5764 19.4653 26.7383 19.3736C26.8993 19.2825 26.9989 19.1145 27 18.9322V2.53677C27 2.25329 26.7657 2.02345 26.4766 2.02345ZM1.04671 18.1109V3.05009H2.29754V15.9241C2.29427 16.2076 2.52592 16.44 2.81494 16.4432C2.8432 16.4435 2.87146 16.4416 2.8994 16.4374C3.98209 16.2753 5.07519 16.1895 6.17038 16.1808C7.68746 16.155 9.1982 16.3788 10.6399 16.843C7.38424 16.4568 4.08199 16.8933 1.04671 18.1109ZM6.17038 15.1593C5.21846 15.1614 4.26765 15.2214 3.32332 15.3389V1.83352C4.34229 1.61087 5.38286 1.49723 6.42683 1.49473C8.38418 1.49473 11.0847 1.93618 12.9583 4.00999L12.974 16.7968C11.8854 16.0986 9.76061 15.1593 6.17038 15.1593ZM14.0207 4.00999C15.8944 1.95672 18.5949 1.49473 20.5522 1.49473C21.5961 1.49775 22.6367 1.61132 23.6557 1.83352V15.3389C22.7167 15.2203 21.7711 15.1586 20.8244 15.1541C17.2551 15.1541 15.125 16.0935 14.0207 16.7916V4.00999ZM25.9481 18.1109C22.9063 16.8899 19.5965 16.4534 16.334 16.843C17.7824 16.3771 19.3004 16.1532 20.8244 16.1808C21.9264 16.1868 23.0266 16.2709 24.1163 16.4323C24.4021 16.4748 24.6689 16.2821 24.7123 16.0018C24.7165 15.9744 24.7185 15.9467 24.7182 15.919V3.05009H25.969L25.9481 18.1109Z" />
</g>
</svg>
