<svg width="39" height="39" viewBox="0 0 39 39" fill="none" xmlns="http://www.w3.org/2000/svg">
<path d="M30.003 11.5342C29.4633 11.0124 28.6075 11.0124 28.0678 11.5342L15.124 24.4915L10.5373 19.9C10.0029 19.3461 9.12104 19.3308 8.56779 19.8658C8.01445 20.4008 7.99919 21.2835 8.53359 21.8373C8.54477 21.8489 8.5562 21.8604 8.56779 21.8716L14.1392 27.4488C14.6831 27.9932 15.5649 27.9932 16.1087 27.4488L30.0373 13.5057C30.5717 12.9519 30.5564 12.0692 30.003 11.5342Z" fill="#FF2E63"/>
<path d="M19.5 0C8.73045 0 0 8.73045 0 19.5C0 30.2696 8.73045 39 19.5 39C30.2696 39 39 30.2696 39 19.5C38.9886 8.73527 30.2648 0.0115074 19.5 0ZM19.5 36.2143C10.2689 36.2143 2.78569 28.7311 2.78569 19.5C2.78569 10.2689 10.2689 2.78569 19.5 2.78569C28.7311 2.78569 36.2143 10.2689 36.2143 19.5C36.2044 28.727 28.727 36.2044 19.5 36.2143Z" fill="#FF2E63"/>
</svg>
