<svg width="20" height="26" viewBox="0 0 20 26"   xmlns="http://www.w3.org/2000/svg">
<path d="M19.9929 9.88339C19.9895 9.83675 19.9806 9.79173 19.9656 9.74671C19.959 9.72864 19.954 9.71047 19.9456 9.69179C19.9189 9.63415 19.885 9.57924 19.8379 9.5326C19.8379 9.5321 19.8374 9.53149 19.8374 9.53149L10.3591 0.160906C10.3113 0.113664 10.2546 0.08015 10.1958 0.0532988C10.1797 0.0461317 10.1637 0.0417911 10.1469 0.0362391C10.0998 0.0197851 10.0514 0.00989257 10.0014 0.00716707C9.98979 0.00605668 9.97866 0 9.96702 0H3.70354C1.66105 0 0 1.64277 0 3.66217V22.3384C0 24.3578 1.66156 26 3.70344 26H16.2966C18.3384 26 20 24.3578 20 22.3384V9.92013C20 9.90751 19.9934 9.896 19.9929 9.88339ZM10.5212 1.87444L18.1041 9.37109H13.114C11.684 9.37109 10.5212 8.22143 10.5212 6.8076V1.87444ZM16.2966 24.9013H3.70354C2.27354 24.9013 1.11074 23.7511 1.11074 22.3378V3.66217C1.11074 2.24834 2.27416 1.09818 3.70354 1.09818H9.41058V6.8077C9.41058 8.8271 11.0721 10.4693 13.114 10.4693H18.8894V22.3379C18.8894 23.7517 17.7266 24.9013 16.2966 24.9013Z" />
</svg>
