<svg width="27" height="27" viewBox="0 0 27 27" fill="currentColor" xmlns="http://www.w3.org/2000/svg">
<path  d="M15.949 7.67627H11.8126C11.4865 7.67627 11.2217 7.941 11.2217 8.26718V15.949H8.26718C7.941 15.949 7.67627 16.2137 7.67627 16.5399C7.67627 16.8661 7.941 17.1308 8.26718 17.1308H11.2217V18.9035C11.2217 19.2297 11.4865 19.4945 11.8126 19.4945C12.1388 19.4945 12.4035 19.2297 12.4035 18.9035V17.1308H15.3581C15.6843 17.1308 15.949 16.8661 15.949 16.5399C15.949 16.2137 15.6843 15.949 15.3581 15.949H12.4035V14.7672H15.949C17.9037 14.7672 19.4945 13.1765 19.4945 11.2217C19.4945 9.267 17.9037 7.67627 15.949 7.67627ZM15.949 13.5854H12.4035V8.85809H15.949C17.2525 8.85809 18.3126 9.91818 18.3126 11.2217C18.3126 12.5253 17.2525 13.5854 15.949 13.5854Z"/>
<path  d="M13.5854 0.584961C6.41772 0.584961 0.585449 6.41723 0.585449 13.585C0.585449 20.7527 6.41772 26.585 13.5854 26.585C20.7532 26.585 26.5854 20.7527 26.5854 13.585C26.5854 6.41723 20.7532 0.584961 13.5854 0.584961ZM13.5854 25.4031C7.0689 25.4031 1.76727 20.1015 1.76727 13.585C1.76727 7.06842 7.0689 1.76678 13.5854 1.76678C20.102 1.76678 25.4036 7.06842 25.4036 13.585C25.4036 20.1015 20.102 25.4031 13.5854 25.4031Z" />
</svg>
